# xmcd CD database file generated by Grip 2.95
# 
# Track frame offsets:
#       150
#       23372
#       46372
#       61280
#       77772
#       94015
#       110682
#       128870
#       144452
#       173952
#       190650
#       215035
#       230892
#       252535
#       270045
# 
# Disc length: 3819 seconds
# 
# Revision: 3
# Processed by: cddbd v1.4b41PL1 Copyright (c) Steve Scherf et al.
# Submitted via: Grip 2.95
# 
DISCID=d00ee90f
DTITLE=R. L. Burnside - Wish I was in heaven sitting down
DYEAR=1900
DGENRE=
TTITLE0=Hard time killing floor
TTITLE1=Got messed up
TTITLE2=Miss Maybelle
TTITLE3=Wish I was in heaven sitting down
TTITLE4=Too many ups
TTITLE5=Nothin' Man
TTITLE6=See what my buddy done
TTITLE7=My eyes keep me in trouble
TTITLE8=Bad luck city
TTITLE9=Chain of fools
TTITLE10=R.L.'s story
TTITLE11=Good Thing
TTITLE12=Black Mattie
TTITLE13=Pucker up butter cup
TTITLE14=Laugh to keep from cryin'
EXTD=
EXTT0=
EXTT1=
EXTT2=
EXTT3=
EXTT4=
EXTT5=
EXTT6=
EXTT7=
EXTT8=
EXTT9=
EXTT10=
EXTT11=
EXTT12=
EXTT13=
EXTT14=
PLAYORDER=
